HIERARCHY
ROOT Hips
{
	OFFSET	0.00	0.00	0.00
	CHANNELS 6 Xposition Yposition Zposition Zrotation Xrotation Yrotation
	JOINT LeftUpLeg
	{
		OFFSET	 0.126116	-0.014019	-0.065224
		CHANNELS 3 Zrotation Xrotation Yrotation
		JOINT LeftLeg
		{
			OFFSET	 0.000000	 0.000000	 0.569914
			CHANNELS 3 Zrotation Xrotation Yrotation
			JOINT LeftFoot
			{
				OFFSET	 0.000000	 0.000000	 0.544423
				CHANNELS 3 Zrotation Xrotation Yrotation
				JOINT LeftToeBase
				{
					OFFSET	 0.000000	 0.000000	 0.207117
					CHANNELS 3 Zrotation Xrotation Yrotation
					End Site
					{
						OFFSET	 0.000000	 0.000000	 0.207117
					}
				}
			}
		}
	}
	JOINT RightUpLeg
	{
		OFFSET	-0.124023	-0.008373	-0.065224
		CHANNELS 3 Zrotation Xrotation Yrotation
		JOINT RightLeg
		{
			OFFSET	 0.000000	 0.000000	 0.570047
			CHANNELS 3 Zrotation Xrotation Yrotation
			JOINT RightFoot
			{
				OFFSET	 0.000000	 0.000000	 0.544354
				CHANNELS 3 Zrotation Xrotation Yrotation
				JOINT RightToeBase
				{
					OFFSET	 0.000000	 0.000000	 0.207540
					CHANNELS 3 Zrotation Xrotation Yrotation
					End Site
					{
						OFFSET	 0.000000	 0.000000	 0.207540
					}
				}
			}
		}
	}
	JOINT Spine
	{
		OFFSET	 0.000184	-0.007763	 0.117403
		CHANNELS 3 Zrotation Xrotation Yrotation
		JOINT Spine1
		{
			OFFSET	 0.000000	 0.000000	 0.137269
			CHANNELS 3 Zrotation Xrotation Yrotation
			JOINT Spine2
			{
				OFFSET	 0.000000	 0.000000	 0.156879
				CHANNELS 3 Zrotation Xrotation Yrotation
				JOINT LeftShoulder
				{
					OFFSET	 0.080501	-0.002496	 0.160144
					CHANNELS 3 Zrotation Xrotation Yrotation
					JOINT LeftArm
					{
						OFFSET	 0.000000	 0.000000	 0.164363
						CHANNELS 3 Zrotation Xrotation Yrotation
						JOINT LeftForeArm
						{
							OFFSET	 0.000000	 0.000000	 0.364576
							CHANNELS 3 Zrotation Xrotation Yrotation
							JOINT LeftHand
							{
								OFFSET	 0.000000	 0.000000	 0.360812
								CHANNELS 3 Zrotation Xrotation Yrotation
								JOINT LeftHandIndex1
								{
									OFFSET	 0.000000	 0.000000	 0.086006
									CHANNELS 3 Zrotation Xrotation Yrotation
									JOINT LeftHandIndex2
									{
										OFFSET	 0.000000	 0.000000	 0.047236
										CHANNELS 3 Zrotation Xrotation Yrotation
										JOINT LeftHandIndex3
										{
											OFFSET	-0.004284	-0.000551	 0.038166
											CHANNELS 3 Zrotation Xrotation Yrotation
											End Site
											{
												OFFSET	-0.004284	-0.000551	 0.038166
											}
										}
									}
								}
							}
						}
					}
				}
				JOINT Neck
				{
					OFFSET	 0.000000	 0.000000	 0.176489
					CHANNELS 3 Zrotation Xrotation Yrotation
					JOINT Head
					{
						OFFSET	 0.000000	-0.001747	 0.077940
						CHANNELS 3 Zrotation Xrotation Yrotation
						End Site
						{
							OFFSET	 0.000000	-0.001747	 0.077940
						}
					}
				}
				JOINT RightShoulder
				{
					OFFSET	-0.080363	 0.000306	 0.159706
					CHANNELS 3 Zrotation Xrotation Yrotation
					JOINT RightArm
					{
						OFFSET	 0.000000	 0.000000	 0.164196
						CHANNELS 3 Zrotation Xrotation Yrotation
						JOINT RightForeArm
						{
							OFFSET	 0.000000	 0.000000	 0.365611
							CHANNELS 3 Zrotation Xrotation Yrotation
							JOINT RightHand
							{
								OFFSET	 0.000000	 0.000000	 0.360648
								CHANNELS 3 Zrotation Xrotation Yrotation
								JOINT RightHandIndex1
								{
									OFFSET	 0.000000	 0.000000	 0.069977
									CHANNELS 3 Zrotation Xrotation Yrotation
									JOINT RightHandIndex2
									{
										OFFSET	 0.000000	 0.000000	 0.052305
										CHANNELS 3 Zrotation Xrotation Yrotation
										JOINT RightHandIndex3
										{
											OFFSET	 0.009002	-0.000782	 0.042196
											CHANNELS 3 Zrotation Xrotation Yrotation
											End Site
											{
												OFFSET	 0.009002	-0.000782	 0.042196
											}
										}
									}
								}
							}
						}
					}
				}
			}
		}
	}
}
MOTION
Frames:    13
Frame Time: 0.03333334
 0.002288	 0.022890	 1.215238	 0.001869	 0.736486	 0.483341	 4.121768	-1.740600	 179.840900	 3.149054	-11.594560	 1.749952	 4.341489	 71.407150	 1.245834	-2.385833	 28.452760	 0.000004	-4.123327	-2.151783	-179.865500	-3.142116	-11.963990	-1.790687	-4.347235	 71.430570	-1.263901	 2.384659	 28.388700	-0.000001	-0.005923	 3.783161	 0.089848	 0.000000	 0.000000	 0.000000	 0.000000	 0.000000	 0.000000	-91.229260	 83.958310	 178.242600	 12.080020	 0.580816	-1.590062	-5.132527	-0.912958	-0.284914	-17.197980	-5.636889	-4.312703	-2.434338	 5.182776	 7.472631	-5.213937	-0.202400	 3.566957	-1.378229	 35.397820	-2.634230	 0.411357	-3.779086	-0.073053	-0.595966	 0.008129	-0.142397	 87.726900	 87.419040	-176.798800	-12.547750	 3.325960	 3.698915	 5.871922	-0.462907	 0.434563	 17.526620	-6.652669	 8.558354	 3.236365	 2.840245	-9.892056	 5.070519	-0.690904	-9.399550	-2.350882	 35.473990	 5.254307
 0.014264	 0.029989	 1.221214	-178.706000	 0.794404	-0.502315	 2.190591	-11.363400	 179.782000	-1.115277	-39.168300	-6.459776	-146.951300	 86.194250	 133.524000	-2.086646	 52.135210	-0.666373	-13.876940	-11.928390	-175.892600	 6.660062	-40.353780	 9.674764	 179.832500	 85.452190	-170.896000	 2.375595	 30.249490	 0.040781	-32.773190	 6.066230	 0.627296	 2.976576	 9.109868	 1.219755	-6.653129	-22.648350	-1.747919	-91.229330	 83.958340	 178.242600	 44.584330	 65.765550	-56.118170	-12.733550	 4.620424	-11.956600	 17.339490	-7.340503	-9.171188	-12.416370	 6.532519	-25.941660	-5.213937	-0.202400	 3.566957	-1.378229	 35.397820	-2.634230	-1.503269	 6.541191	 5.063146	-5.631472	-20.924800	-7.772437	 87.727040	 87.419040	-176.799000	-73.343480	 60.443860	 71.730940	 13.151290	 4.596001	 11.971360	-30.898700	-4.131958	 19.216950	-0.283699	 26.276060	-62.387120	 5.070519	-0.690904	-9.399550	-2.350882	 35.473990	 5.254307
 0.016257	 0.025713	 1.222442	-177.511600	 1.456713	-0.317681	 1.371321	-12.536980	 179.406000	-0.201529	-39.432290	-5.905531	-138.643000	 86.492950	 124.632000	-1.951193	 56.702260	-0.865768	-14.935880	-12.536690	-176.549600	 6.755980	-40.314240	 9.731555	-174.969600	 84.920630	-175.981800	 2.386217	 28.031080	-0.007720	-34.950200	 6.219098	 0.610586	 2.535531	 9.369446	 1.174525	-6.268239	-23.800650	-1.778483	-91.229230	 83.958270	 178.242500	 44.226020	 64.276300	-53.366680	-16.335290	 5.937432	-13.229790	 15.927060	-7.277436	-9.549188	-11.658380	 8.360842	-24.837730	-5.213937	-0.202400	 3.566957	-1.378229	 35.397820	-2.634230	-1.746512	 7.079566	 4.845383	-5.785175	-22.218640	-7.813583	 87.726780	 87.419040	-176.798700	-76.975780	 60.923360	 75.825640	 16.214600	 5.909073	 13.243260	-29.438870	-4.150063	 19.315220	-0.920190	 25.290980	-62.201380	 5.070519	-0.690904	-9.399550	-2.350882	 35.473990	 5.254307
 0.016545	 0.024803	 1.222689	-177.295900	 1.668365	-0.383699	 1.174380	-12.818660	 179.457400	-0.068231	-39.431130	-5.819420	-136.934400	 86.631170	 122.831700	-1.941771	 56.972270	-0.878922	-15.258600	-12.816640	-176.564700	 6.820342	-40.362870	 9.784447	-173.977600	 84.884040	-176.982800	 2.386025	 28.075160	-0.006773	-35.160070	 6.230858	 0.706582	 2.443029	 9.268330	 1.170863	-6.144510	-23.949860	-1.733259	-91.229250	 83.958340	 178.242600	 44.301710	 64.267140	-53.077880	-16.749290	 6.225406	-13.480990	 15.800430	-7.393445	-9.581037	-11.620660	 8.560035	-24.865300	-5.213937	-0.202400	 3.566957	-1.378229	 35.397820	-2.634230	-1.793920	 7.169399	 4.901596	-5.845024	-22.313390	-8.030200	 87.726650	 87.418960	-176.798600	-77.239260	 61.002930	 76.031850	 17.028490	 6.200850	 13.495320	-28.940680	-4.115803	 19.273740	-0.979565	 25.243830	-62.394580	 5.070519	-0.690904	-9.399550	-2.350882	 35.473990	 5.254307
 0.016859	 0.023939	 1.222916	-177.082200	 1.882608	-0.456389	 0.975668	-13.098130	 179.513800	 0.061547	-39.428120	-5.735391	-135.122500	 86.766870	 120.930000	-1.933434	 57.206510	-0.890490	-15.585540	-13.099030	-176.573600	 6.885955	-40.411930	 9.838348	-173.024400	 84.848010	-177.946600	 2.385722	 28.144290	-0.005276	-35.279240	 6.240868	 0.808322	 2.351485	 9.149402	 1.172972	-6.015729	-24.091010	-1.685516	-91.229120	 83.958340	 178.242400	 44.465170	 64.304920	-52.924970	-17.131430	 6.511828	-13.722500	 15.683000	-7.512831	-9.610875	-11.589600	 8.747581	-24.907120	-5.213937	-0.202400	 3.566957	-1.378229	 35.397820	-2.634230	-1.841188	 7.257269	 4.962948	-5.905810	-22.399420	-8.256984	 87.726830	 87.419040	-176.798800	-77.360650	 61.069010	 76.055590	 17.835430	 6.491163	 13.735710	-28.435540	-4.078796	 19.228700	-1.035258	 25.204990	-62.599010	 5.070519	-0.690904	-9.399550	-2.350882	 35.473990	 5.254307
 0.017197	 0.023125	 1.223127	-176.868900	 2.096024	-0.529760	 0.776880	-13.373350	 179.568400	 0.191054	-39.425180	-5.651587	-133.195100	 86.896440	 118.912800	-1.924974	 57.440220	-0.902177	-15.911450	-13.376140	-176.582300	 6.950825	-40.457700	 9.891181	-172.119400	 84.809100	-178.862800	 2.385425	 28.213250	-0.003794	-35.310100	 6.249981	 0.910262	 2.260010	 9.018238	 1.178324	-5.883542	-24.227990	-1.636659	-91.229240	 83.958340	 178.242600	 44.710190	 64.378060	-52.888260	-17.495050	 6.794346	-13.949790	 15.567330	-7.628667	-9.640609	-11.558450	 8.934708	-24.948990	-5.213937	-0.202400	 3.566957	-1.378229	 35.397820	-2.634230	-1.888438	 7.344838	 5.024342	-5.966040	-22.485230	-8.483260	 87.726860	 87.418960	-176.798800	-77.370800	 61.123240	 75.933300	 18.622570	 6.777596	 13.965540	-27.933850	-4.040896	 19.182810	-1.090850	 25.166590	-62.802970	 5.070519	-0.690904	-9.399550	-2.350882	 35.473990	 5.254307
 0.017535	 0.022377	 1.223319	-176.662400	 2.302228	-0.601399	 0.584151	-13.636130	 179.620300	 0.316460	-39.421130	-5.570350	-131.201200	 87.017440	 116.831600	-1.916651	 57.666410	-0.913610	-16.226470	-13.640370	-176.590400	 7.012893	-40.498480	 9.941225	-171.288800	 84.770070	-179.704900	 2.385139	 28.279980	-0.002352	-35.258060	 6.257987	 1.009323	 2.170049	 8.880850	 1.183714	-5.751620	-24.357680	-1.586856	-91.229210	 83.958310	 178.242500	 45.012270	 64.476230	-52.933100	-17.829230	 7.064118	-14.162560	 15.457000	-7.737583	-9.669300	-11.528170	 9.115722	-24.989630	-5.213937	-0.202400	 3.566957	-1.378229	 35.397820	-2.634230	-1.934266	 7.429525	 5.083857	-6.023828	-22.568290	-8.702210	 87.726840	 87.418890	-176.798800	-77.302580	 61.168330	 75.712610	 19.367030	 7.051008	 14.176300	-27.450660	-4.003089	 19.137570	-1.144682	 25.129740	-63.000330	 5.070519	-0.690904	-9.399550	-2.350882	 35.473990	 5.254307
 0.018043	 0.021977	 1.223431	-176.556400	 2.359563	-0.568852	 0.517930	-13.736130	 179.545400	 0.354376	-39.454300	-5.549816	-129.728000	 87.073640	 115.337600	-1.904202	 57.998110	-0.930617	-16.335480	-13.669200	-176.678100	 7.051661	-40.484170	 9.964573	-170.908000	 84.639660	 179.909700	 2.385344	 28.232900	-0.003368	-35.072720	 6.288154	 1.023611	 2.143542	 8.889423	 1.145519	-5.608348	-24.450040	-1.512224	-91.229260	 83.958340	 178.242600	 45.319180	 64.570890	-53.058250	-18.290220	 7.333063	-14.366140	 15.221020	-7.806987	-9.702753	-11.498340	 9.208019	-24.960260	-5.213937	-0.202400	 3.566957	-1.378229	 35.397820	-2.634230	-1.980546	 7.609085	 5.235373	-6.093782	-22.743310	-8.989167	 87.726620	 87.419040	-176.798600	-77.182790	 61.091820	 75.481170	 19.914950	 7.320829	 14.380130	-27.240600	-3.976437	 19.186100	-1.134662	 25.133690	-62.950260	 5.070519	-0.690904	-9.399550	-2.350882	 35.473990	 5.254307
 0.018550	 0.021632	 1.223532	-176.458400	 2.405185	-0.527989	 0.461951	-13.820680	 179.461800	 0.385600	-39.488850	-5.533730	-128.287400	 87.123970	 113.880900	-1.891157	 58.337300	-0.948321	-16.427580	-13.677440	-176.769000	 7.087840	-40.462570	 9.984714	-170.602000	 84.503950	 179.598500	 2.385586	 28.177110	-0.004577	-34.805850	 6.319010	 1.031780	 2.118232	 8.902612	 1.099992	-5.460244	-24.537940	-1.431761	-91.229340	 83.958340	 178.242600	 45.660770	 64.675450	-53.213950	-18.744050	 7.596688	-14.559310	 14.977650	-7.870563	-9.736323	-11.468640	 9.293281	-24.925520	-5.213937	-0.202400	 3.566957	-1.378229	 35.397820	-2.634230	-2.027249	 7.795381	 5.393930	-6.164694	-22.924990	-9.280955	 87.726940	 87.418960	-176.798900	-77.044170	 61.003360	 75.226330	 20.430000	 7.585180	 14.572900	-27.054340	-3.948243	 19.241200	-1.119713	 25.140800	-62.881150	 5.070519	-0.690904	-9.399550	-2.350882	 35.473990	 5.254307
 0.020370	 0.019401	 1.224044	-176.183800	 3.034717	-0.430129	 0.402353	-14.647780	 179.231800	 0.374653	-39.601510	-5.553910	-122.134000	 87.297880	 107.769800	-1.862279	 59.059230	-0.987084	-16.805360	-14.293440	-177.158100	 7.269294	-40.434760	 10.101760	-168.181100	 84.224370	 177.144900	 2.382449	 28.875970	 0.010576	-32.237980	 5.923436	 1.065553	 1.988189	 8.965999	 1.103426	-4.836168	-24.680210	-1.216123	-91.229210	 83.958340	 178.242500	 46.907020	 65.507030	-53.162640	-20.946010	 8.816813	-15.379940	 13.331010	-8.241422	-9.784919	-11.362150	 9.508556	-24.725960	-5.213937	-0.202400	 3.566957	-1.378229	 35.397820	-2.634230	-2.185634	 8.051739	 5.845197	-6.301369	-23.054980	-10.165700	 87.726650	 87.418890	-176.798600	-76.601070	 60.567100	 74.469630	 22.472180	 8.804056	 15.389370	-26.383600	-3.835531	 19.566560	-1.489587	 24.439690	-62.227710	 5.070519	-0.690904	-9.399550	-2.350882	 35.473990	 5.254307
 0.020978	 0.018646	 1.224388	-176.135700	 3.370353	-0.342491	 0.348683	-14.967510	 179.131800	 0.464556	-39.559510	-5.490987	-121.105300	 87.399090	 106.659500	-1.803122	 60.426570	-1.064861	-16.950260	-14.576230	-177.273200	 7.323408	-40.328660	 10.116750	-167.530200	 84.103820	 176.467100	 2.384125	 28.507750	 0.002575	-27.947040	 5.930541	 1.099946	 1.797369	 8.477287	 0.974731	-4.141644	-24.580050	-0.937985	-91.229280	 83.958310	 178.242600	 48.809150	 66.674520	-52.579490	-23.644300	 9.839697	-15.983610	 10.832480	-8.436596	-9.762926	-11.342770	 9.548800	-24.690220	-5.213937	-0.202400	 3.566957	-1.378229	 35.397820	-2.634230	-2.250318	 7.626573	 5.808264	-6.144762	-22.413670	-10.193860	 87.726970	 87.418890	-176.798900	-76.589050	 60.038710	 74.115360	 24.025220	 9.816057	 15.985000	-25.772050	-3.637500	 19.900950	-1.712348	 24.027190	-61.918390	 5.070519	-0.690904	-9.399550	-2.350882	 35.473990	 5.254307
 0.022505	 0.017168	 1.224864	-175.894700	 3.674030	-0.164005	 0.205180	-15.399080	 178.827200	 0.358010	-39.630700	-5.568072	-122.380800	 87.713550	 107.926100	-1.830799	 59.804440	-1.028725	-17.093010	-14.714720	-177.652400	 7.284517	-40.159800	 10.056160	-165.150100	 84.576100	 174.067600	 2.387954	 27.612720	-0.016700	-20.243350	 6.069027	 1.235169	 1.386221	 8.211937	 0.451691	-2.797453	-24.718500	-0.122699	-91.229260	 83.958310	 178.242600	 48.672370	 66.736600	-52.652080	-26.873510	 10.793460	-16.477950	 7.677814	-8.272983	-9.855014	-12.251500	 7.527125	-26.174950	-5.213937	-0.202400	 3.566957	-1.378229	 35.397820	-2.634230	-2.270452	 7.436317	 6.080887	-6.019344	-22.280560	-10.634470	 87.727010	 87.418960	-176.799000	-77.400690	 59.602080	 75.039920	 25.714970	 10.756020	 16.478840	-24.525110	-3.098399	 20.249230	-1.809029	 23.890080	-61.961860	 5.070519	-0.690904	-9.399550	-2.350882	 35.473990	 5.254307
 0.023478	 0.016405	 1.225074	-175.554600	 3.585671	-0.209488	 0.166869	-15.417450	 178.747300	 0.574083	-39.676780	-5.433643	-113.543700	 87.788400	 98.988850	-1.784419	 60.830920	-1.089047	-17.601970	-14.580680	-177.700800	 7.400824	-40.100460	 10.122200	-163.730500	 84.588580	 172.589900	 2.390136	 27.059330	-0.028510	-15.869020	 6.338656	 1.413698	 1.082063	 8.367045	 0.260630	-2.144725	-24.915420	 0.266494	-91.229190	 83.958340	 178.242500	 47.098090	 65.953050	-53.282390	-28.060660	 11.076220	-16.611200	 6.467699	-8.037469	-9.947147	-12.284810	 7.249121	-26.065850	-5.213937	-0.202400	 3.566957	-1.378229	 35.397820	-2.634230	-2.309108	 7.045823	 6.027530	-5.969735	-22.058710	-10.717640	 87.727120	 87.418890	-176.799100	-78.086480	 59.548590	 76.114670	 26.257940	 11.033770	 16.616930	-23.778240	-2.829078	 20.337830	-1.631269	 24.168280	-61.990150	 5.070519	-0.690904	-9.399550	-2.350882	 35.473990	 5.254307
